<svg width="20" height="20" viewBox="0 0 20 20" xmlns="http://www.w3.org/2000/svg">
    <path d="M16.725.4c-.74 0-1.386.303-1.798.767a2.445 2.445 0 0 0-.602 1.633c0 .288.047.579.145.855l-3.13 2.46c-.378-.25-.816-.435-1.335-.435a2.38 2.38 0 0 0-1.625.642L5.6 4.735c.032-.165.085-.328.085-.495 0-.58-.19-1.17-.602-1.633-.412-.464-1.058-.767-1.798-.767s-1.386.303-1.798.767A2.445 2.445 0 0 0 .885 4.24c0 .58.19 1.17.602 1.633.412.464 1.058.767 1.798.767a2.38 2.38 0 0 0 1.624-.642l2.78 1.587c-.032.165-.084.328-.084.495 0 .58.19 1.17.602 1.633.412.464 1.058.767 1.798.767s1.386-.303 1.798-.767a2.445 2.445 0 0 0 .602-1.633 2.57 2.57 0 0 0-.146-.855l3.13-2.46c.378.25.816.435 1.336.435.74 0 1.386-.303 1.798-.767a2.445 2.445 0 0 0 .602-1.633c0-.58-.19-1.17-.602-1.633C18.11.703 17.465.4 16.725.4zm0 1.44c.38 0 .574.117.722.283.148.167.238.417.238.677 0 .26-.09.51-.238.677-.148.166-.342.283-.722.283-.357 0-.533-.115-.678-.265a.72.72 0 0 0-.08-.122 1.023 1.023 0 0 1-.202-.573c0-.26.09-.51.238-.677.148-.166.342-.283.722-.283zM3.285 3.28c.38 0 .574.117.722.283.148.167.238.417.238.677 0 .26-.09.51-.238.677-.148.166-.342.283-.722.283-.38 0-.574-.117-.722-.283a1.036 1.036 0 0 1-.238-.677c0-.26.09-.51.238-.677.148-.166.342-.283.722-.283zm6.72 3.84c.356 0 .533.115.677.265a.72.72 0 0 0 .081.122c.11.161.202.353.202.573 0 .26-.09.51-.238.677-.148.166-.342.283-.722.283-.38 0-.574-.117-.722-.283a1.036 1.036 0 0 1-.238-.677c0-.26.09-.51.238-.677.148-.166.342-.283.722-.283zm6.717 0a2.413 2.413 0 0 0-2.402 2.403v7.197a2.413 2.413 0 0 0 2.402 2.403 2.414 2.414 0 0 0 2.403-2.403V9.523a2.414 2.414 0 0 0-2.403-2.403zm0 1.44c.54 0 .963.423.963.963v7.197c0 .54-.423.963-.963.963a.951.951 0 0 1-.962-.963V9.523c0-.54.422-.963.962-.963zm-13.44.003A2.412 2.412 0 0 0 .88 10.965v5.755a2.413 2.413 0 0 0 2.402 2.403 2.414 2.414 0 0 0 2.403-2.403v-5.755a2.413 2.413 0 0 0-2.403-2.402zm0 1.44c.54 0 .963.421.963.962v5.755c0 .54-.423.963-.963.963a.951.951 0 0 1-.962-.963v-5.755a.95.95 0 0 1 .962-.962zm6.723 2.397a2.414 2.414 0 0 0-2.403 2.403v1.917a2.414 2.414 0 0 0 2.403 2.403 2.414 2.414 0 0 0 2.402-2.403v-1.917a2.414 2.414 0 0 0-2.402-2.403zm0 1.44c.54 0 .962.423.962.963v1.917c0 .54-.422.963-.962.963a.952.952 0 0 1-.963-.963v-1.917c0-.54.422-.963.963-.963z" fill="#000" fill-rule="nonzero" opacity=".5"/>
</svg>
