<svg width="20" height="20" viewBox="0 0 20 20" xmlns="http://www.w3.org/2000/svg">
    <path d="M3.52.4A3.131 3.131 0 0 0 .4 3.52V14.057c0 .953 1.167 1.547 1.939.987l1.946-1.416A3.122 3.122 0 0 0 7.36 16.24h6.006l4.295 3.124a1.219 1.219 0 0 0 1.939-.987V7.84c0-1.72-1.4-3.12-3.12-3.12h-.72v-1.2A3.131 3.131 0 0 0 12.64.4H3.52zm0 1.44h9.12c.936 0 1.68.744 1.68 1.68V8.8a1.67 1.67 0 0 1-1.68 1.68H6.4a.72.72 0 0 0-.424.138L1.84 13.626V3.52c0-.936.744-1.68 1.68-1.68zm1.44 1.92a.72.72 0 1 0 0 1.44h6.24a.72.72 0 1 0 0-1.44H4.96zm10.8 2.4h.72c.926 0 1.68.754 1.68 1.68v10.106l-4.136-3.008a.722.722 0 0 0-.424-.138H7.36c-.926 0-1.68-.754-1.68-1.68v-.506l.954-.694h6.006a3.131 3.131 0 0 0 3.12-3.12V6.16zm-10.8.96a.72.72 0 1 0 0 1.44h4.8a.72.72 0 1 0 0-1.44h-4.8z" fill="#000" fill-rule="nonzero" opacity=".5"/>
</svg>
