<svg width="18" height="20" viewBox="0 0 18 20" xmlns="http://www.w3.org/2000/svg">
    <path d="M8.977.4a.72.72 0 0 0-.422.155L1.733 5.93A3.602 3.602 0 0 0 .36 8.757v9.163c0 .655.545 1.2 1.2 1.2h4.8c.655 0 1.2-.545 1.2-1.2v-4.8a.23.23 0 0 1 .24-.24h2.4a.23.23 0 0 1 .24.24v4.8c0 .655.545 1.2 1.2 1.2h4.8c.655 0 1.2-.545 1.2-1.2V8.757a3.602 3.602 0 0 0-1.372-2.827L9.445.555A.72.72 0 0 0 8.977.4zM9 2.037l6.377 5.024c.52.41.823 1.034.823 1.696v8.923h-4.32v-4.56c0-.919-.76-1.68-1.68-1.68H7.8c-.92 0-1.68.761-1.68 1.68v4.56H1.8V8.757c0-.662.303-1.286.823-1.696L9 2.037z" fill="#000" fill-rule="nonzero" opacity=".5"/>
</svg>
