<svg width="24" height="24" viewBox="0 0 24 24" xmlns="http://www.w3.org/2000/svg">
    <path d="M12.123 0c-.946 0-1.858.12-2.73.322a.9.9 0 0 0-.69.78l-.19 1.741a1.798 1.798 0 0 1-2.514 1.45h-.001l-1.6-.704a.9.9 0 0 0-1.02.209 11.978 11.978 0 0 0-2.74 4.723.9.9 0 0 0 .33.986l1.42 1.041a1.8 1.8 0 0 1 0 2.904l-1.42 1.04a.9.9 0 0 0-.33.986 11.974 11.974 0 0 0 2.74 4.724.9.9 0 0 0 1.02.207l1.6-.704a1.8 1.8 0 0 1 2.514 1.452l.192 1.741a.9.9 0 0 0 .689.779c.87.203 1.784.323 2.73.323s1.858-.12 2.73-.322a.9.9 0 0 0 .69-.78l.19-1.741a1.798 1.798 0 0 1 2.514-1.452l1.601.704a.9.9 0 0 0 1.02-.207 11.982 11.982 0 0 0 2.74-4.724.9.9 0 0 0-.33-.987l-1.419-1.039a1.798 1.798 0 0 1 0-2.904l1.42-1.04a.9.9 0 0 0 .328-.986 11.982 11.982 0 0 0-2.74-4.724.9.9 0 0 0-1.019-.207l-1.6.704a1.8 1.8 0 0 1-2.514-1.452l-.191-1.741a.9.9 0 0 0-.69-.779A11.995 11.995 0 0 0 12.124 0zm0 1.8c.585 0 1.146.105 1.709.204l.112 1.035a3.604 3.604 0 0 0 5.029 2.904l.951-.419c.73.878 1.31 1.869 1.713 2.955l-.843.618a3.602 3.602 0 0 0 0 5.806l.843.618a10.116 10.116 0 0 1-1.713 2.955l-.951-.419a3.602 3.602 0 0 0-5.029 2.904l-.112 1.035c-.563.099-1.125.204-1.709.204-.585 0-1.146-.105-1.709-.204l-.112-1.035a3.604 3.604 0 0 0-5.029-2.904l-.951.419a10.109 10.109 0 0 1-1.713-2.955l.843-.618a3.602 3.602 0 0 0 0-5.807l-.843-.619a10.111 10.111 0 0 1 1.714-2.954l.95.418a3.601 3.601 0 0 0 5.029-2.902l.112-1.035c.563-.099 1.125-.204 1.709-.204zm0 5.4c-2.64 0-4.8 2.16-4.8 4.8 0 2.64 2.16 4.8 4.8 4.8 2.64 0 4.8-2.16 4.8-4.8 0-2.64-2.16-4.8-4.8-4.8zm0 1.8c1.668 0 3 1.332 3 3s-1.332 3-3 3c-1.667 0-3-1.332-3-3s1.333-3 3-3z" fill="#000" fill-rule="nonzero" opacity=".5"/>
</svg>
