<svg width="16" height="20" viewBox="0 0 16 20" xmlns="http://www.w3.org/2000/svg">
    <path d="M6.32.4c-1.102 0-2.013.848-2.136 1.92H2.48c-1.184 0-2.16.976-2.16 2.16v12.96c0 1.184.976 2.16 2.16 2.16h11.04c1.184 0 2.16-.976 2.16-2.16V4.48c0-1.184-.976-2.16-2.16-2.16h-1.704C11.693 1.248 10.782.4 9.68.4H6.32zm0 1.44h3.36a.71.71 0 0 1 .72.72.71.71 0 0 1-.72.72H6.32a.71.71 0 0 1-.72-.72.71.71 0 0 1 .72-.72zM2.48 3.76h2.05c.389.577 1.048.96 1.79.96h3.36c.742 0 1.401-.383 1.79-.96h2.05a.71.71 0 0 1 .72.72v12.96a.71.71 0 0 1-.72.72H2.48a.71.71 0 0 1-.72-.72V4.48a.71.71 0 0 1 .72-.72zm8.626 4.793a.72.72 0 0 0-.495.218L6.8 12.58l-1.41-1.41a.72.72 0 1 0-1.02 1.018l1.92 1.92a.72.72 0 0 0 1.02 0l4.32-4.32a.72.72 0 0 0-.524-1.236z" fill="#000" fill-rule="nonzero" opacity=".5"/>
</svg>
