<svg width="22" height="21" viewBox="0 0 22 21" xmlns="http://www.w3.org/2000/svg">
    <path d="M6.92.4a.72.72 0 0 0-.72.72v3.6H4.52a3.604 3.604 0 0 0-3.6 3.6v6.72c0 1.985 1.615 3.6 3.6 3.6h8.722a4.82 4.82 0 0 1-1.753-1.44H4.52c-1.19 0-2.16-.97-2.16-2.16V8.32c0-1.19.97-2.16 2.16-2.16h12c1.19 0 2.16.97 2.16 2.16v2.578c.78.766 1.3 1.795 1.416 2.942h.024V8.32c0-1.985-1.615-3.6-3.6-3.6h-1.68v-3.6a.72.72 0 0 0-.72-.72h-7.2zm.72 1.44h5.76v2.88H7.64V1.84zm7.68 8.64a3.844 3.844 0 0 0-3.84 3.84 3.844 3.844 0 0 0 3.84 3.84c.8 0 1.54-.246 2.156-.666l2.375 2.375a.717.717 0 0 0 1.018 0 .72.72 0 0 0 0-1.018l-2.374-2.375a3.817 3.817 0 0 0 .665-2.156 3.844 3.844 0 0 0-3.84-3.84zm0 1.44c1.323 0 2.4 1.077 2.4 2.4s-1.077 2.4-2.4 2.4a2.403 2.403 0 0 1-2.4-2.4c0-1.323 1.077-2.4 2.4-2.4z" fill="#000" fill-rule="nonzero" opacity=".5"/>
</svg>
