<svg width="27" height="30" viewBox="0 0 27 30" xmlns="http://www.w3.org/2000/svg">
    <path d="M9.39 30c1.653 0 3.137-.286 4.451-.857 1.315-.572 2.554-1.429 3.72-2.572l2.357 2.898h7.073l-5.894-6.898a12.667 12.667 0 0 0 1.91-3.387c.461-1.225.76-2.49.895-3.796h-5c-.081.598-.203 1.19-.366 1.775a7.945 7.945 0 0 1-.69 1.694l-3.74-4.612c1.463-.79 2.69-1.769 3.678-2.939.99-1.17 1.484-2.612 1.484-4.326 0-1.143-.21-2.15-.63-3.02a6.31 6.31 0 0 0-1.707-2.184A7.444 7.444 0 0 0 14.41.449c-.963-.3-2-.449-3.11-.449-.976 0-1.918.156-2.826.47a7.651 7.651 0 0 0-2.418 1.346A6.672 6.672 0 0 0 4.37 3.918c-.42.817-.63 1.728-.63 2.735 0 1.279.264 2.395.792 3.347a18.977 18.977 0 0 0 1.972 2.857 18.42 18.42 0 0 0-2.439 1.429 11.45 11.45 0 0 0-2.093 1.857 8.253 8.253 0 0 0-1.444 2.326C.176 19.327 0 20.272 0 21.306c0 1.388.244 2.62.732 3.694a8.087 8.087 0 0 0 1.992 2.735c.84.748 1.836 1.313 2.987 1.694 1.152.38 2.378.571 3.68.571zm1.87-19.184a81.038 81.038 0 0 1-1.545-2c-.488-.653-.731-1.442-.731-2.367 0-.762.257-1.381.772-1.857a2.604 2.604 0 0 1 1.83-.714c.704 0 1.32.272 1.849.816.528.544.792 1.197.792 1.96 0 1.06-.29 1.89-.874 2.489a11.558 11.558 0 0 1-2.093 1.673zm-1.626 14.45a4.113 4.113 0 0 1-1.565-.307 4.503 4.503 0 0 1-1.321-.816 3.914 3.914 0 0 1-.915-1.225 3.38 3.38 0 0 1-.345-1.49c0-.598.115-1.142.345-1.632.23-.49.535-.939.915-1.347.38-.408.813-.762 1.3-1.061.488-.3.99-.558 1.505-.776l4.959 6.082a9.82 9.82 0 0 1-2.175 1.857c-.772.476-1.673.714-2.703.714z" fill="#3FA6D9" fill-rule="nonzero"/>
</svg>
