<svg width="20" height="22" viewBox="0 0 20 22" xmlns="http://www.w3.org/2000/svg">
    <path d="M3.04.92C1.84.92.88 1.88.88 3.08v14.88c0 1.2.96 2.16 2.16 2.16h8.352a5.594 5.594 0 0 1-1.056-1.44H3.04a.738.738 0 0 1-.72-.72V3.08c0-.384.336-.72.72-.72h5.52v4.08c0 1.2.96 2.16 2.16 2.16h4.08v.48c.48 0 .864.192 1.152.576.096.096.192.24.288.336V7.88a.72.72 0 0 0-.216-.504l.005-.005-6.24-6.24-.005.005A.72.72 0 0 0 9.28.92H3.04zM10 3.378l3.782 3.782H10.72a.738.738 0 0 1-.72-.72V3.378zm4.8 6.674a.49.49 0 0 0-.384.18c-1.296 1.68-3.456 1.728-3.456 1.728-.288 0-.48.192-.48.48v2.88c0 4.656 4.176 5.76 4.224 5.76h.192c.048-.048 4.224-1.104 4.224-5.76v-2.88c0-.24-.24-.48-.48-.48 0 0-2.16-.048-3.456-1.728a.49.49 0 0 0-.384-.18zM5.44 11a.738.738 0 0 0-.72.72c0 .384.336.72.72.72h4.08c0-.768.576-1.392 1.296-1.44H5.44zm0 3.36a.738.738 0 0 0-.72.72c0 .384.336.72.72.72h4.08v-1.44H5.44z" fill="#000" fill-rule="nonzero" opacity=".5"/>
</svg>
