<svg width="18" height="18" viewBox="0 0 18 18" xmlns="http://www.w3.org/2000/svg">
    <path d="M3.48.36A3.131 3.131 0 0 0 .36 3.48v11.04a3.131 3.131 0 0 0 3.12 3.12h11.04a3.131 3.131 0 0 0 3.12-3.12V3.48A3.131 3.131 0 0 0 14.52.36H3.48zm0 1.44h11.04c.936 0 1.68.744 1.68 1.68v.72H1.8v-.72c0-.936.744-1.68 1.68-1.68zM1.8 5.64h14.4v8.88a1.67 1.67 0 0 1-1.68 1.68H3.48a1.67 1.67 0 0 1-1.68-1.68V5.64zM10.68 9C9.76 9 9 9.76 9 10.68v1.92c0 .92.76 1.68 1.68 1.68h1.92c.92 0 1.68-.76 1.68-1.68v-1.92c0-.92-.76-1.68-1.68-1.68h-1.92zm0 1.44h1.92a.23.23 0 0 1 .24.24v1.92a.23.23 0 0 1-.24.24h-1.92a.23.23 0 0 1-.24-.24v-1.92a.23.23 0 0 1 .24-.24z" fill="#000" fill-rule="nonzero" opacity=".5"/>
</svg>
