<svg width="18" height="22" viewBox="0 0 18 22" xmlns="http://www.w3.org/2000/svg">
    <path d="M8.8 0a5.513 5.513 0 0 0-5.5 5.5c0 3.028 2.472 5.5 5.5 5.5s5.5-2.472 5.5-5.5S11.828 0 8.8 0zm0 1.65a3.838 3.838 0 0 1 3.85 3.85A3.838 3.838 0 0 1 8.8 9.35 3.838 3.838 0 0 1 4.95 5.5 3.838 3.838 0 0 1 8.8 1.65zM2.188 13.2A2.2 2.2 0 0 0 0 15.388v.837c0 1.982 1.254 3.516 2.919 4.434C4.584 21.578 6.692 22 8.8 22s4.216-.422 5.881-1.34c1.42-.784 2.489-2.036 2.788-3.61h.132v-1.662c0-1.199-.99-2.188-2.19-2.188H2.189zm0 1.65h13.224c.307 0 .54.231.54.538v.012h-.002v.825c0 1.318-.74 2.26-2.066 2.99-1.325.732-3.204 1.135-5.084 1.135-1.88 0-3.759-.403-5.084-1.134-1.326-.732-2.066-1.673-2.066-2.991v-.837c0-.307.231-.538.538-.538z" fill="#142A50" fill-rule="nonzero"/>
</svg>
