<svg width="18" height="18" viewBox="0 0 18 18" xmlns="http://www.w3.org/2000/svg">
    <path d="M14.52.36c-.41 0-.822.155-1.132.464l-1.76 1.76a1.611 1.611 0 0 0 0 2.263l1.76 1.76a1.612 1.612 0 0 0 2.264 0l1.76-1.76a1.611 1.611 0 0 0 0-2.263l-1.76-1.76C15.342.514 14.93.36 14.52.36zM3.48.595c-.98 0-1.806.394-2.338.992C.61 2.186.36 2.955.36 3.715s.25 1.53.782 2.128c.532.599 1.358.992 2.338.992a3.131 3.131 0 0 0 3.12-3.12A3.131 3.131 0 0 0 3.48.595zm11.04 1.196a.16.16 0 0 1 .113.051l1.76 1.76c.069.07.069.158 0 .227l-1.76 1.76c-.07.07-.157.07-.226 0l-1.76-1.76c-.069-.069-.069-.158 0-.226l1.76-1.76a.16.16 0 0 1 .113-.052zm-11.04.244c.936 0 1.68.744 1.68 1.68a1.67 1.67 0 0 1-1.68 1.68c-.62 0-.994-.206-1.262-.508-.268-.301-.418-.732-.418-1.172 0-.44.15-.87.418-1.172.268-.301.642-.508 1.262-.508zm4.8.96a.72.72 0 1 0 0 1.44h1.44a.72.72 0 1 0 0-1.44H8.28zm-4.811 4.79a.72.72 0 0 0-.709.73v1.44a.72.72 0 1 0 1.44 0v-1.44a.72.72 0 0 0-.731-.73zm11.04 0a.72.72 0 0 0-.709.73v1.44a.72.72 0 1 0 1.44 0v-1.44a.72.72 0 0 0-.731-.73zM2.04 11.635c-.92 0-1.68.761-1.68 1.68v2.88c0 .92.76 1.68 1.68 1.68h2.88c.92 0 1.68-.76 1.68-1.68v-2.88c0-.919-.76-1.68-1.68-1.68H2.04zm12.48 0c-.98 0-1.806.394-2.338.992-.532.599-.782 1.368-.782 2.128s.25 1.53.782 2.128c.532.599 1.358.992 2.338.992a3.131 3.131 0 0 0 3.12-3.12 3.131 3.131 0 0 0-3.12-3.12zm-12.48 1.44h2.88a.23.23 0 0 1 .24.24v2.88a.23.23 0 0 1-.24.24H2.04a.23.23 0 0 1-.24-.24v-2.88a.23.23 0 0 1 .24-.24zm12.48 0c.936 0 1.68.744 1.68 1.68a1.67 1.67 0 0 1-1.68 1.68c-.62 0-.994-.206-1.262-.508-.268-.301-.418-.732-.418-1.172 0-.44.15-.87.418-1.172.268-.301.642-.508 1.262-.508z" fill="#000" fill-rule="nonzero" opacity=".5"/>
</svg>
